<?xml version="1.0" standalone="no"?>
<!DOCTYPE svg PUBLIC "-//W3C//DTD SVG 20010904//EN"
 "http://www.w3.org/TR/2001/REC-SVG-20010904/DTD/svg10.dtd">
<svg version="1.0" xmlns="http://www.w3.org/2000/svg"
 width="450.000000pt" height="450.000000pt" viewBox="0 0 450.000000 450.000000"
 preserveAspectRatio="xMidYMid meet">

<g transform="translate(0.000000,450.000000) scale(0.100000,-0.100000)"
fill="#000000" stroke="none">
<path d="M2095 4494 c-552 -46 -1025 -259 -1409 -633 -186 -182 -317 -356
-429 -571 -170 -326 -251 -659 -251 -1040 0 -381 81 -714 251 -1040 112 -215
243 -389 429 -571 346 -337 768 -545 1249 -615 163 -24 467 -24 630 0 481 70
903 278 1249 615 186 182 317 356 429 571 170 326 251 659 251 1040 0 381 -81
714 -251 1040 -112 215 -243 389 -429 571 -345 336 -774 548 -1244 614 -116
16 -382 26 -475 19z m421 -159 c1052 -138 1834 -1027 1834 -2085 0 -1162 -938
-2100 -2100 -2100 -1162 0 -2100 938 -2100 2100 0 1054 777 1942 1826 2084
137 19 398 19 540 1z"/>
<path d="M2007 3604 c-180 -33 -389 -120 -545 -226 -99 -68 -272 -241 -340
-340 -109 -160 -193 -365 -226 -553 -20 -115 -21 -341 -1 -463 31 -188 122
-410 236 -572 68 -97 233 -261 331 -328 159 -109 368 -194 555 -227 115 -20
351 -20 466 0 282 49 534 181 737 385 119 119 188 215 259 357 98 197 142 383
142 609 0 233 -44 420 -146 624 -73 144 -141 238 -259 355 -201 200 -455 332
-732 380 -109 19 -369 18 -477 -1z m393 -75 c106 -13 222 -42 322 -80 l76 -30
7 -77 c31 -364 100 -721 185 -953 16 -45 29 -83 27 -85 -1 -1 -44 -36 -96 -78
l-94 -76 -62 118 c-180 344 -470 720 -809 1050 l-146 142 27 11 c43 16 190 50
257 59 91 11 211 11 306 -1z m-562 -221 c265 -247 517 -545 708 -838 74 -115
204 -348 204 -367 0 -11 -203 -163 -218 -163 -4 0 -21 24 -39 53 -130 215
-429 405 -850 540 -139 45 -386 105 -531 128 -72 12 -73 13 -67 38 13 50 74
172 128 253 121 185 270 322 467 432 36 20 68 36 71 36 3 0 60 -51 127 -112z
m1131 11 c97 -65 271 -238 340 -338 62 -91 141 -242 141 -270 0 -21 -354 -351
-364 -340 -10 11 -81 248 -102 340 -37 164 -93 544 -94 642 0 14 19 6 79 -34z
m557 -904 c18 -120 14 -290 -9 -400 l-13 -60 -40 1 c-92 1 -210 97 -290 233
-24 42 -44 80 -44 86 0 6 35 40 78 77 42 37 122 109 177 161 l100 95 12 -41
c7 -23 20 -91 29 -152z m-2306 134 c480 -94 853 -256 1064 -462 62 -61 156
-185 156 -207 0 -11 -241 -147 -370 -209 -149 -71 -290 -121 -426 -152 -117
-26 -315 -30 -404 -7 -52 13 -56 16 -97 82 -123 200 -194 486 -180 721 6 87
27 221 42 262 5 14 2 15 215 -28z m1879 -396 c97 -164 217 -266 343 -288 l37
-7 -25 -67 c-34 -91 -95 -201 -162 -295 -59 -81 -214 -246 -232 -246 -5 0 -10
22 -10 49 0 58 -26 266 -42 331 -25 108 -63 232 -100 328 -22 56 -38 106 -36
111 2 7 178 150 185 151 1 0 20 -30 42 -67z m-261 -257 c73 -202 114 -394 127
-603 7 -121 8 -119 -124 -187 -103 -52 -199 -88 -301 -110 -93 -20 -210 -35
-210 -26 0 4 25 44 56 90 72 107 127 217 166 333 30 86 32 101 33 232 0 77 -4
160 -8 186 l-9 45 109 77 c59 42 110 77 113 77 4 0 25 -52 48 -114z m-348
-193 c27 -176 -49 -410 -207 -635 -78 -112 -75 -110 -147 -102 -240 25 -487
122 -670 263 -53 41 -186 170 -186 180 0 3 51 5 112 3 145 -4 274 17 447 74
143 47 375 155 531 247 52 31 98 53 102 49 4 -4 12 -39 18 -79z"/>
</g>
</svg>
