<svg version="1.1" id="Layer_1" xmlns="http://www.w3.org/2000/svg" xmlns:xlink="http://www.w3.org/1999/xlink" x="0px" y="0px"
	 width="100%" viewBox="0 0 450 450" enable-background="new 0 0 450 450" xml:space="preserve">
<path fill="#04855F" opacity="1.000000" stroke="none" 
	d="
M451.000000,195.000000 
	C451.000000,215.354233 451.000000,235.708450 450.593262,256.481232 
	C449.470917,259.515625 448.510437,262.091583 448.077423,264.753387 
	C443.523102,292.748108 433.679871,318.762024 419.004700,342.988770 
	C406.584259,363.493347 391.426300,381.726715 373.167328,397.256165 
	C355.484253,412.295868 336.087891,424.747437 314.586975,433.640778 
	C298.433533,440.322266 281.842224,445.638031 264.441101,448.157013 
	C261.877289,448.528168 259.476318,450.024353 257.000000,451.000000 
	C236.645767,451.000000 216.291550,451.000000 195.518768,450.593262 
	C192.484451,449.470886 189.908524,448.510437 187.246780,448.077454 
	C159.252029,443.523163 133.238098,433.679962 109.011307,419.004761 
	C88.506721,406.584320 70.273399,391.426300 54.743858,373.167389 
	C39.704067,355.484344 27.252655,336.087860 18.359222,314.586975 
	C11.677688,298.433594 6.362003,281.842224 3.842946,264.441132 
	C3.471795,261.877319 1.975644,259.476318 1.000002,257.000000 
	C1.000000,236.645767 1.000000,216.291550 1.406754,195.518768 
	C2.529094,192.484375 3.489517,189.908356 3.922558,187.246567 
	C8.476926,159.251877 18.320095,133.237946 32.995277,109.011208 
	C45.415768,88.506660 60.573746,70.273300 78.832672,54.743790 
	C96.515739,39.704048 115.912170,27.252607 137.413055,18.359205 
	C153.566422,11.677687 170.157761,6.361969 187.558853,3.842944 
	C190.122696,3.471796 192.523666,1.975642 195.000000,1.000000 
	C215.354233,1.000000 235.708450,1.000000 256.481232,1.406756 
	C259.515564,2.529094 262.091553,3.489526 264.753296,3.922555 
	C292.748016,8.476891 318.761963,18.320053 342.988708,32.995228 
	C363.493286,45.415722 381.726593,60.573719 397.256134,78.832634 
	C412.295898,96.515717 424.747437,115.912117 433.640839,137.413010 
	C440.322388,153.566406 445.638092,170.157761 448.157043,187.558884 
	C448.528168,190.122711 450.024353,192.523682 451.000000,195.000000 
M37.496662,135.004578 
	C25.900373,158.130783 18.971323,182.731201 17.299078,208.395645 
	C16.129278,226.348907 16.466698,244.427368 19.743467,262.434082 
	C24.844875,290.467590 35.160137,316.213379 50.504089,340.054810 
	C63.166519,359.729767 79.118790,376.386536 97.375389,390.957001 
	C114.174728,404.364471 132.742966,414.474579 152.793289,422.106384 
	C169.379105,428.419464 186.399307,432.477753 204.084763,434.094055 
	C224.992889,436.004791 245.818558,435.715057 266.413452,431.659088 
	C289.727875,427.067474 311.528351,418.350586 332.166199,406.487946 
	C352.395203,394.860229 369.567993,379.567749 384.876892,362.320618 
	C399.398315,345.960632 410.476654,327.214905 419.100616,306.987427 
	C427.852173,286.460754 433.200348,265.092773 434.763367,242.983765 
	C435.684204,229.958130 435.308563,216.658218 433.763611,203.690430 
	C432.097961,189.709366 429.436554,175.652100 425.337189,162.198593 
	C418.021942,138.190826 406.269073,116.282562 390.387512,96.641922 
	C378.231506,81.608673 364.685730,68.064705 349.079712,56.684364 
	C317.706360,33.806026 282.539215,20.322628 243.918671,17.276983 
	C221.304855,15.493643 198.550156,16.647770 176.304184,22.346401 
	C143.794144,30.674328 114.433395,45.365543 89.266068,67.491943 
	C67.860718,86.310898 49.886818,108.133492 37.496662,135.004578 
z"/>
<path fill="#000000" opacity="1.000000" stroke="none" 
	d="
M194.531342,1.000000 
	C192.523666,1.975642 190.122696,3.471796 187.558853,3.842944 
	C170.157761,6.361969 153.566422,11.677687 137.413055,18.359205 
	C115.912170,27.252607 96.515739,39.704048 78.832672,54.743790 
	C60.573746,70.273300 45.415768,88.506660 32.995277,109.011208 
	C18.320095,133.237946 8.476926,159.251877 3.922558,187.246567 
	C3.489517,189.908356 2.529094,192.484375 1.406754,195.050110 
	C1.000000,130.406296 1.000000,65.812607 1.000000,1.000000 
	C65.354065,1.000000 129.708374,1.000000 194.531342,1.000000 
z"/>
<path fill="#000000" opacity="1.000000" stroke="none" 
	d="
M451.000000,194.531342 
	C450.024353,192.523682 448.528168,190.122711 448.157043,187.558884 
	C445.638092,170.157761 440.322388,153.566406 433.640839,137.413010 
	C424.747437,115.912117 412.295898,96.515717 397.256134,78.832634 
	C381.726593,60.573719 363.493286,45.415722 342.988708,32.995228 
	C318.761963,18.320053 292.748016,8.476891 264.753296,3.922555 
	C262.091553,3.489526 259.515564,2.529094 256.949890,1.406756 
	C321.593689,1.000000 386.187378,1.000000 451.000000,1.000000 
	C451.000000,65.354065 451.000000,129.708374 451.000000,194.531342 
z"/>
<path fill="#000000" opacity="1.000000" stroke="none" 
	d="
M1.000002,257.468658 
	C1.975644,259.476318 3.471795,261.877319 3.842946,264.441132 
	C6.362003,281.842224 11.677688,298.433594 18.359222,314.586975 
	C27.252655,336.087860 39.704067,355.484344 54.743858,373.167389 
	C70.273399,391.426300 88.506721,406.584320 109.011307,419.004761 
	C133.238098,433.679962 159.252029,443.523163 187.246780,448.077454 
	C189.908524,448.510437 192.484451,449.470886 195.050110,450.593262 
	C130.406311,451.000000 65.812630,451.000000 1.000000,451.000000 
	C1.000000,386.645935 1.000000,322.291626 1.000002,257.468658 
z"/>
<path fill="#000000" opacity="1.000000" stroke="none" 
	d="
M257.468658,451.000000 
	C259.476318,450.024353 261.877289,448.528168 264.441101,448.157013 
	C281.842224,445.638031 298.433533,440.322266 314.586975,433.640778 
	C336.087891,424.747437 355.484253,412.295868 373.167328,397.256165 
	C391.426300,381.726715 406.584259,363.493347 419.004700,342.988770 
	C433.679871,318.762024 443.523102,292.748108 448.077423,264.753387 
	C448.510437,262.091583 449.470917,259.515625 450.593262,256.949890 
	C451.000000,321.593689 451.000000,386.187378 451.000000,451.000000 
	C386.645935,451.000000 322.291626,451.000000 257.468658,451.000000 
z"/>
<path fill="#000000" opacity="1.000000" stroke="none" 
	d="
M37.692223,134.682281 
	C49.886818,108.133492 67.860718,86.310898 89.266068,67.491943 
	C114.433395,45.365543 143.794144,30.674328 176.304184,22.346401 
	C198.550156,16.647770 221.304855,15.493643 243.918671,17.276983 
	C282.539215,20.322628 317.706360,33.806026 349.079712,56.684364 
	C364.685730,68.064705 378.231506,81.608673 390.387512,96.641922 
	C406.269073,116.282562 418.021942,138.190826 425.337189,162.198593 
	C429.436554,175.652100 432.097961,189.709366 433.763611,203.690430 
	C435.308563,216.658218 435.684204,229.958130 434.763367,242.983765 
	C433.200348,265.092773 427.852173,286.460754 419.100616,306.987427 
	C410.476654,327.214905 399.398315,345.960632 384.876892,362.320618 
	C369.567993,379.567749 352.395203,394.860229 332.166199,406.487946 
	C311.528351,418.350586 289.727875,427.067474 266.413452,431.659088 
	C245.818558,435.715057 224.992889,436.004791 204.084763,434.094055 
	C186.399307,432.477753 169.379105,428.419464 152.793289,422.106384 
	C132.742966,414.474579 114.174728,404.364471 97.375389,390.957001 
	C79.118790,376.386536 63.166519,359.729767 50.504089,340.054810 
	C35.160137,316.213379 24.844875,290.467590 19.743467,262.434082 
	C16.466698,244.427368 16.129278,226.348907 17.299078,208.395645 
	C18.971323,182.731201 25.900373,158.130783 37.692223,134.682281 
M272.475464,96.000587 
	C249.996887,87.830582 226.969208,86.016884 203.413269,89.897827 
	C168.462280,95.656151 139.618423,112.334145 117.848404,140.021393 
	C92.815697,171.858124 83.439293,208.313644 89.920593,248.502167 
	C95.557526,283.454956 112.327660,312.244995 139.953125,334.136169 
	C170.868851,358.634613 206.548538,368.098755 245.531067,362.705139 
	C281.556915,357.720581 311.482635,340.660004 334.093842,312.114777 
	C358.589996,281.190002 367.968903,245.565201 362.743408,206.543198 
	C358.994080,178.544525 347.265533,153.781403 328.210541,132.859192 
	C312.992676,116.150101 294.606781,103.847656 272.475464,96.000587 
z"/>
<path fill="#045A3D" opacity="1.000000" stroke="none" 
	d="
M272.857788,96.092064 
	C294.606781,103.847656 312.992676,116.150101 328.210541,132.859192 
	C347.265533,153.781403 358.994080,178.544525 362.743408,206.543198 
	C367.968903,245.565201 358.589996,281.190002 334.093842,312.114777 
	C311.482635,340.660004 281.556915,357.720581 245.531067,362.705139 
	C206.548538,368.098755 170.868851,358.634613 139.953125,334.136169 
	C112.327660,312.244995 95.557526,283.454956 89.920593,248.502167 
	C83.439293,208.313644 92.815697,171.858124 117.848404,140.021393 
	C139.618423,112.334145 168.462280,95.656151 203.413269,89.897827 
	C226.969208,86.016884 249.996887,87.830582 272.857788,96.092064 
M187.807739,215.660873 
	C160.373077,203.709900 131.643097,196.646317 102.271866,192.367203 
	C101.738579,193.328018 101.390289,193.730423 101.277672,194.190506 
	C92.388893,230.506302 98.162468,264.432007 118.032745,296.000305 
	C118.827591,297.263123 120.428452,298.605133 121.816429,298.810364 
	C129.346954,299.924072 136.940536,301.530273 144.490570,301.423523 
	C168.654694,301.081757 190.718140,292.659943 211.965134,282.021149 
	C223.193634,276.398834 233.990356,269.914185 245.630692,263.459137 
	C242.228134,258.379791 239.673813,253.905685 236.492462,249.933823 
	C223.766876,234.046280 206.641541,224.262390 187.807739,215.660873 
M184.287231,204.228058 
	C212.146835,215.750412 238.180634,229.694000 254.057785,257.456268 
	C260.733612,252.710861 267.088318,248.206421 273.424377,243.675919 
	C274.355560,243.010071 275.198212,242.220413 276.303223,241.304565 
	C275.038757,238.684769 273.878967,236.132141 272.594940,233.643585 
	C248.225067,186.412384 214.471222,146.660095 175.206039,111.270523 
	C172.894501,109.187126 171.199142,109.343521 168.691147,110.620834 
	C147.116440,121.608719 129.624954,137.139374 116.974785,157.781387 
	C112.085793,165.759048 108.296356,174.410568 103.664116,183.419983 
	C131.902008,187.956039 158.230225,194.065994 184.287231,204.228058 
M301.966827,217.390640 
	C301.026154,214.900894 300.014587,212.435349 299.155609,209.917725 
	C288.489319,178.654770 283.724487,146.281708 281.232544,113.504883 
	C280.997986,110.419670 279.972412,108.931786 277.110352,107.720421 
	C255.455017,98.554749 232.964905,95.148109 209.694702,98.314285 
	C200.422165,99.575905 191.337311,102.217003 181.137756,104.456062 
	C223.365234,143.114838 258.709320,185.175323 283.707123,235.897522 
	C290.097076,230.739197 296.071045,225.992645 301.905975,221.081009 
	C302.449677,220.623352 302.113373,219.120255 301.966827,217.390640 
M245.257416,314.686096 
	C250.504578,300.854218 252.390701,286.815430 248.161438,271.865082 
	C211.150681,293.649536 174.003922,313.556244 128.979034,309.784485 
	C129.516647,310.767609 129.665588,311.226654 129.960876,311.553467 
	C153.761337,337.894531 183.425949,352.161346 218.809967,354.466644 
	C220.289093,354.563019 222.385910,353.492493 223.323868,352.287537 
	C232.146591,340.953522 239.938522,328.979523 245.257416,314.686096 
M287.763458,269.770355 
	C285.288940,263.181793 282.814453,256.593201 280.222595,249.692169 
	C273.074249,254.719391 266.758270,259.344635 260.234467,263.655365 
	C257.763550,265.288086 257.953400,266.981171 258.258575,269.522217 
	C259.185547,277.240051 260.548035,285.067902 260.097992,292.756744 
	C258.986572,311.746826 250.528839,328.187225 240.419830,343.858246 
	C238.294739,347.152557 236.076416,350.386719 233.568542,354.147186 
	C235.287521,354.147186 236.246674,354.210449 237.195435,354.137848 
	C257.317963,352.598114 275.862549,346.276947 293.174622,335.979858 
	C296.503174,334.000092 297.630859,331.684540 297.570587,327.924011 
	C297.255890,308.297211 293.986450,289.194946 287.763458,269.770355 
M304.177338,198.231781 
	C305.957001,203.481674 307.736633,208.731552 309.828186,214.901505 
	C321.455872,204.118973 332.205322,193.980774 343.178497,184.090775 
	C346.044983,181.507217 346.197571,179.270554 344.766663,175.910065 
	C334.271362,151.261978 317.130463,132.279816 295.252716,117.282600 
	C293.869446,116.334373 292.285370,115.679146 290.122101,114.530441 
	C292.424316,143.271057 296.223511,170.687500 304.177338,198.231781 
M303.901520,298.636169 
	C304.853760,307.636475 305.805969,316.636810 306.844330,326.451050 
	C326.495392,309.541351 340.702881,289.826141 348.603943,265.233948 
	C326.817261,261.827576 316.289520,245.904572 306.770264,228.787430 
	C300.960449,233.403152 295.704041,237.767899 290.229828,241.839737 
	C287.885712,243.583313 287.704651,245.105331 288.810455,247.698837 
	C295.683136,263.817993 300.754944,280.496399 303.901520,298.636169 
M319.082764,233.379196 
	C320.275543,235.178391 321.382721,237.041809 322.675751,238.765839 
	C328.797150,246.927521 336.080811,253.483459 346.414978,255.812714 
	C349.667511,256.545807 351.815521,256.217590 352.126831,252.099960 
	C352.876343,242.186661 354.824860,232.272354 354.581390,222.400589 
	C354.320801,211.832565 352.103455,201.312790 350.587524,189.591888 
	C339.857269,199.357086 330.586121,207.870972 321.227600,216.287720 
	C313.292480,223.424301 313.247803,223.374634 319.082764,233.379196 
z"/>
<path fill="#FEC325" opacity="1.000000" stroke="none" 
	d="
M188.161743,215.799316 
	C206.641541,224.262390 223.766876,234.046280 236.492462,249.933823 
	C239.673813,253.905685 242.228134,258.379791 245.630692,263.459137 
	C233.990356,269.914185 223.193634,276.398834 211.965134,282.021149 
	C190.718140,292.659943 168.654694,301.081757 144.490570,301.423523 
	C136.940536,301.530273 129.346954,299.924072 121.816429,298.810364 
	C120.428452,298.605133 118.827591,297.263123 118.032745,296.000305 
	C98.162468,264.432007 92.388893,230.506302 101.277672,194.190506 
	C101.390289,193.730423 101.738579,193.328018 102.271866,192.367203 
	C131.643097,196.646317 160.373077,203.709900 188.161743,215.799316 
z"/>
<path fill="#FEC325" opacity="1.000000" stroke="none" 
	d="
M183.922592,204.101791 
	C158.230225,194.065994 131.902008,187.956039 103.664116,183.419983 
	C108.296356,174.410568 112.085793,165.759048 116.974785,157.781387 
	C129.624954,137.139374 147.116440,121.608719 168.691147,110.620834 
	C171.199142,109.343521 172.894501,109.187126 175.206039,111.270523 
	C214.471222,146.660095 248.225067,186.412384 272.594940,233.643585 
	C273.878967,236.132141 275.038757,238.684769 276.303223,241.304565 
	C275.198212,242.220413 274.355560,243.010071 273.424377,243.675919 
	C267.088318,248.206421 260.733612,252.710861 254.057785,257.456268 
	C238.180634,229.694000 212.146835,215.750412 183.922592,204.101791 
z"/>
<path fill="#FDC325" opacity="1.000000" stroke="none" 
	d="
M302.076233,217.746613 
	C302.113373,219.120255 302.449677,220.623352 301.905975,221.081009 
	C296.071045,225.992645 290.097076,230.739197 283.707123,235.897522 
	C258.709320,185.175323 223.365234,143.114838 181.137756,104.456062 
	C191.337311,102.217003 200.422165,99.575905 209.694702,98.314285 
	C232.964905,95.148109 255.455017,98.554749 277.110352,107.720421 
	C279.972412,108.931786 280.997986,110.419670 281.232544,113.504883 
	C283.724487,146.281708 288.489319,178.654770 299.155609,209.917725 
	C300.014587,212.435349 301.026154,214.900894 302.076233,217.746613 
z"/>
<path fill="#FDC325" opacity="1.000000" stroke="none" 
	d="
M245.136688,315.056641 
	C239.938522,328.979523 232.146591,340.953522 223.323868,352.287537 
	C222.385910,353.492493 220.289093,354.563019 218.809967,354.466644 
	C183.425949,352.161346 153.761337,337.894531 129.960876,311.553467 
	C129.665588,311.226654 129.516647,310.767609 128.979034,309.784485 
	C174.003922,313.556244 211.150681,293.649536 248.161438,271.865082 
	C252.390701,286.815430 250.504578,300.854218 245.136688,315.056641 
z"/>
<path fill="#FCC325" opacity="1.000000" stroke="none" 
	d="
M287.867371,270.153625 
	C293.986450,289.194946 297.255890,308.297211 297.570587,327.924011 
	C297.630859,331.684540 296.503174,334.000092 293.174622,335.979858 
	C275.862549,346.276947 257.317963,352.598114 237.195435,354.137848 
	C236.246674,354.210449 235.287521,354.147186 233.568542,354.147186 
	C236.076416,350.386719 238.294739,347.152557 240.419830,343.858246 
	C250.528839,328.187225 258.986572,311.746826 260.097992,292.756744 
	C260.548035,285.067902 259.185547,277.240051 258.258575,269.522217 
	C257.953400,266.981171 257.763550,265.288086 260.234467,263.655365 
	C266.758270,259.344635 273.074249,254.719391 280.222595,249.692169 
	C282.814453,256.593201 285.288940,263.181793 287.867371,270.153625 
z"/>
<path fill="#FCC325" opacity="1.000000" stroke="none" 
	d="
M304.084747,197.839996 
	C296.223511,170.687500 292.424316,143.271057 290.122101,114.530441 
	C292.285370,115.679146 293.869446,116.334373 295.252716,117.282600 
	C317.130463,132.279816 334.271362,151.261978 344.766663,175.910065 
	C346.197571,179.270554 346.044983,181.507217 343.178497,184.090775 
	C332.205322,193.980774 321.455872,204.118973 309.828186,214.901505 
	C307.736633,208.731552 305.957001,203.481674 304.084747,197.839996 
z"/>
<path fill="#FCC325" opacity="1.000000" stroke="none" 
	d="
M303.845886,298.204895 
	C300.754944,280.496399 295.683136,263.817993 288.810455,247.698837 
	C287.704651,245.105331 287.885712,243.583313 290.229828,241.839737 
	C295.704041,237.767899 300.960449,233.403152 306.770264,228.787430 
	C316.289520,245.904572 326.817261,261.827576 348.603943,265.233948 
	C340.702881,289.826141 326.495392,309.541351 306.844330,326.451050 
	C305.805969,316.636810 304.853760,307.636475 303.845886,298.204895 
z"/>
<path fill="#FBC225" opacity="1.000000" stroke="none" 
	d="
M318.910583,233.056976 
	C313.247803,223.374634 313.292480,223.424301 321.227600,216.287720 
	C330.586121,207.870972 339.857269,199.357086 350.587524,189.591888 
	C352.103455,201.312790 354.320801,211.832565 354.581390,222.400589 
	C354.824860,232.272354 352.876343,242.186661 352.126831,252.099960 
	C351.815521,256.217590 349.667511,256.545807 346.414978,255.812714 
	C336.080811,253.483459 328.797150,246.927521 322.675751,238.765839 
	C321.382721,237.041809 320.275543,235.178391 318.910583,233.056976 
z"/>
</svg>